<svg width="32" height="32" viewBox="0 0 32 32" fill="none" xmlns="http://www.w3.org/2000/svg">
<g filter="url(#filter0_d)">
<path d="M26.7234 0H5.2766C4.57166 0 4 0.571404 4 1.2766V22.7234C4 23.4286 4.57166 24 5.2766 24H26.7234C27.4286 24 28 23.4286 28 22.7234V1.2766C28 0.571404 27.4286 0 26.7234 0ZM16.0204 2.23813C18.7521 2.24502 20.9453 4.48008 20.9317 7.24289C20.9172 9.94162 18.6883 12.1292 15.9609 12.12C13.2607 12.1108 11.0466 9.87243 11.0619 7.16783C11.078 4.43362 13.2936 2.22996 16.0204 2.23813ZM21.554 14.0609C20.9499 14.6816 20.2227 15.13 19.4149 15.4437C18.6512 15.7389 17.8146 15.8885 16.9863 15.9876C17.1114 16.1239 17.1704 16.19 17.248 16.2689C18.3724 17.3987 19.5014 18.5239 20.622 19.657C21.0035 20.0428 21.0842 20.5215 20.8735 20.9706C20.6435 21.4621 20.129 21.7846 19.624 21.7499C19.3043 21.7274 19.0551 21.5683 18.834 21.346C17.9854 20.4919 17.1206 19.654 16.2898 18.7849C16.048 18.5316 15.9316 18.5788 15.7176 18.7991C14.8641 19.678 13.9973 20.5432 13.1249 21.4034C12.7329 21.79 12.267 21.8591 11.8117 21.6388C11.3287 21.4047 11.0218 20.9117 11.0455 20.4156C11.0619 20.0806 11.2268 19.8248 11.4569 19.595C12.569 18.4841 13.6786 17.3704 14.7888 16.2574C14.8626 16.1839 14.931 16.105 15.038 15.9906C13.5242 15.8326 12.1592 15.4603 10.9911 14.5463C10.8464 14.4327 10.6965 14.3229 10.5637 14.1957C10.0526 13.7045 10.0013 13.1426 10.406 12.5627C10.7517 12.0669 11.3333 11.9336 11.9371 12.2183C12.0543 12.2732 12.1656 12.3424 12.2723 12.4162C14.4497 13.9123 17.4413 13.954 19.6271 12.4841C19.8433 12.3189 20.0749 12.182 20.3435 12.1141C20.8656 11.9801 21.3512 12.1713 21.6316 12.6278C21.9525 13.1479 21.9482 13.6565 21.554 14.0609Z" fill="black"/>
</g>
<defs>
<filter id="filter0_d" x="0" y="0" width="32" height="32" filterUnits="userSpaceOnUse" color-interpolation-filters="sRGB">
<feFlood flood-opacity="0" result="BackgroundImageFix"/>
<feColorMatrix in="SourceAlpha" type="matrix" values="0 0 0 0 0 0 0 0 0 0 0 0 0 0 0 0 0 0 127 0"/>
<feOffset dy="4"/>
<feGaussianBlur stdDeviation="2"/>
<feColorMatrix type="matrix" values="0 0 0 0 0 0 0 0 0 0 0 0 0 0 0 0 0 0 0.25 0"/>
<feBlend mode="normal" in2="BackgroundImageFix" result="effect1_dropShadow"/>
<feBlend mode="normal" in="SourceGraphic" in2="effect1_dropShadow" result="shape"/>
</filter>
</defs>
</svg>
